<?xml version="1.0" standalone="no"?>
<!DOCTYPE svg PUBLIC "-//W3C//DTD SVG 20010904//EN"
 "http://www.w3.org/TR/2001/REC-SVG-20010904/DTD/svg10.dtd">
<svg version="1.0" xmlns="http://www.w3.org/2000/svg"
 width="1461.000000pt" height="1461.000000pt" viewBox="0 0 1461.000000 1461.000000"
 preserveAspectRatio="xMidYMid meet">
<metadata>
Created by potrace 1.11, written by Peter Selinger 2001-2013
</metadata>
<g transform="translate(0.000000,1461.000000) scale(0.100000,-0.100000)"
fill="#000000" stroke="none">
<path d="M8329 14316 c-74 -21 -153 -61 -196 -100 -22 -20 -50 -36 -62 -36
-14 0 -21 -6 -21 -20 0 -18 -7 -20 -60 -20 -53 0 -60 -2 -60 -20 0 -17 -7 -20
-40 -20 -33 0 -40 -3 -40 -20 0 -15 -7 -20 -25 -20 -18 0 -25 -5 -25 -20 0
-27 -28 -25 -33 3 -4 19 -4 18 -6 -5 -1 -21 -6 -28 -21 -28 -11 0 -20 -7 -20
-15 0 -8 -1 -15 -3 -15 -6 0 -890 -109 -967 -120 -41 -5 -118 -14 -170 -20
-52 -6 -126 -15 -165 -20 -38 -6 -149 -19 -245 -30 -170 -20 -753 -90 -1075
-130 -88 -10 -239 -29 -335 -40 -254 -30 -483 -57 -665 -80 -88 -11 -239 -29
-335 -40 -163 -19 -335 -40 -750 -90 -210 -25 -446 -53 -675 -80 -334 -39
-365 -46 -479 -115 -32 -19 -64 -35 -71 -35 -7 0 -15 -9 -18 -20 -4 -16 -14
-20 -46 -20 -34 0 -41 -3 -41 -20 0 -17 -7 -20 -40 -20 -33 0 -40 -3 -40 -20
0 -17 -7 -20 -40 -20 -33 0 -40 -3 -40 -20 0 -13 -7 -20 -20 -20 -13 0 -20 -7
-20 -20 0 -15 -7 -20 -25 -20 -20 0 -25 -5 -25 -25 0 -18 -5 -25 -20 -25 -13
0 -20 -7 -20 -20 0 -13 -7 -20 -20 -20 -13 0 -20 -7 -20 -20 0 -13 -7 -20 -20
-20 -13 0 -20 -7 -20 -20 0 -13 -7 -20 -20 -20 -13 0 -20 -7 -20 -20 0 -13 -7
-20 -19 -20 -15 0 -20 -10 -25 -45 -6 -36 -11 -45 -27 -45 -12 0 -19 -7 -19
-20 0 -13 -7 -20 -20 -20 -13 0 -20 -7 -20 -20 0 -13 -7 -20 -20 -20 -13 0
-20 -7 -20 -20 0 -17 -7 -20 -40 -20 -33 0 -40 -3 -40 -20 0 -15 -7 -20 -25
-20 -20 0 -25 -5 -25 -25 0 -22 -4 -25 -40 -25 -33 0 -40 -3 -40 -20 0 -13 -7
-20 -20 -20 -11 0 -20 -4 -20 -8 0 -10 -45 -32 -65 -32 -8 0 -24 -9 -35 -20
-11 -11 -29 -20 -40 -20 -11 0 -29 -9 -40 -20 -11 -11 -29 -20 -40 -20 -11 0
-29 -9 -40 -20 -11 -11 -33 -20 -50 -20 -17 0 -30 -4 -30 -10 0 -15 -55 -40
-88 -40 -21 0 -31 -6 -35 -20 -4 -15 -14 -20 -40 -20 -26 0 -36 -5 -40 -20 -4
-16 -14 -20 -45 -20 -31 0 -41 -4 -45 -20 -4 -15 -14 -20 -40 -20 -26 0 -36
-5 -40 -20 -4 -15 -14 -20 -40 -20 -26 0 -36 -5 -40 -20 -3 -14 -14 -20 -31
-20 -23 0 -26 -4 -26 -35 0 -19 2 -35 5 -35 2 0 215 102 472 226 529 256 819
394 828 394 3 0 5 -11 5 -25 0 -18 -5 -25 -20 -25 -18 0 -20 -7 -20 -65 0 -58
2 -65 20 -65 19 0 20 -7 20 -205 0 -198 1 -205 20 -205 19 0 20 -7 20 -170 0
-163 1 -170 20 -170 19 0 20 -7 20 -165 0 -158 1 -165 20 -165 19 0 20 -7 20
-165 l0 -165 25 0 25 0 0 -170 c0 -163 1 -170 20 -170 19 0 20 -7 20 -165 0
-158 1 -165 20 -165 19 0 20 -7 20 -165 0 -158 1 -165 20 -165 19 0 20 -7 20
-170 0 -163 1 -170 20 -170 19 0 20 -7 20 -165 0 -158 1 -165 20 -165 19 0 20
-7 20 -190 l0 -190 25 0 25 0 0 -165 c0 -158 1 -165 20 -165 19 0 20 -7 20
-165 0 -158 1 -165 20 -165 19 0 20 -7 20 -170 0 -163 1 -170 20 -170 19 0 20
-7 20 -115 0 -63 -2 -115 -5 -115 -2 0 -113 50 -247 111 -318 145 -316 145
-330 131 -6 -6 -78 -300 -160 -654 -113 -486 -147 -648 -140 -664 7 -15 154
-87 527 -260 284 -131 528 -243 541 -248 24 -10 24 -12 24 -138 0 -121 1 -128
20 -128 19 0 20 -7 20 -165 0 -158 1 -165 20 -165 19 0 20 -7 20 -170 0 -163
1 -170 20 -170 19 0 20 -7 20 -185 l0 -185 25 0 25 0 0 -165 c0 -158 1 -165
20 -165 19 0 20 -7 20 -170 0 -163 1 -170 20 -170 19 0 20 -7 20 -185 0 -178
1 -185 20 -185 19 0 20 -7 20 -170 0 -163 1 -170 20 -170 19 0 20 -7 20 -145
0 -138 1 -145 20 -145 19 0 20 -7 20 -105 l0 -105 25 0 c23 0 25 -4 25 -40 0
-33 3 -40 20 -40 17 0 20 -7 20 -40 0 -33 3 -40 20 -40 17 0 20 -7 20 -45 0
-38 3 -45 20 -45 13 0 20 -7 20 -20 0 -13 7 -20 20 -20 13 0 20 -7 20 -20 0
-13 7 -20 20 -20 13 0 20 -7 20 -20 0 -15 7 -20 25 -20 18 0 25 -5 25 -20 0
-17 7 -20 40 -20 33 0 40 -3 40 -20 0 -17 7 -20 40 -20 36 0 40 -2 40 -25 l0
-25 125 0 c118 0 125 -1 125 -20 0 -18 7 -20 85 -20 78 0 85 2 85 20 0 19 7
20 210 20 l210 0 0 25 0 25 165 0 c158 0 165 1 165 20 0 19 7 20 185 20 178 0
185 1 185 20 0 17 6 20 48 19 47 0 46 -1 -128 -87 -253 -126 -619 -303 -1530
-744 -443 -215 -962 -467 -1155 -560 -226 -110 -370 -173 -405 -180 -47 -9
-68 -7 -140 11 -121 30 -185 65 -261 140 -75 75 -18 -36 -549 1069 l-305 632
-3 -557 c-2 -307 0 -595 3 -640 7 -79 8 -83 31 -83 23 0 24 -3 24 -65 0 -58 2
-65 20 -65 17 0 20 -7 20 -40 0 -33 3 -40 20 -40 17 0 20 -7 20 -40 0 -33 3
-40 20 -40 17 0 20 -7 20 -45 0 -38 3 -45 20 -45 17 0 20 -7 20 -40 0 -33 3
-40 20 -40 17 0 20 -7 20 -40 0 -36 3 -40 25 -40 23 0 25 -4 25 -45 0 -38 3
-45 20 -45 13 0 20 -7 20 -20 0 -13 7 -20 20 -20 17 0 20 -7 20 -40 0 -33 3
-40 20 -40 13 0 20 -7 20 -20 0 -13 7 -20 20 -20 15 0 20 -7 20 -25 0 -18 5
-25 20 -25 13 0 20 -7 20 -20 0 -15 7 -20 25 -20 18 0 25 -5 25 -20 0 -13 7
-20 20 -20 13 0 20 -7 20 -20 0 -17 7 -20 40 -20 33 0 40 -3 40 -20 0 -18 7
-20 65 -20 58 0 65 -2 65 -20 0 -19 7 -20 205 -20 198 0 205 1 205 20 0 18 7
20 65 20 58 0 65 2 65 20 0 17 7 20 40 20 33 0 40 3 40 20 0 17 7 20 40 20 33
0 40 3 40 20 0 17 7 20 45 20 38 0 45 3 45 20 0 17 7 20 40 20 36 0 40 3 40
25 0 23 4 25 40 25 33 0 40 3 40 20 0 17 7 20 45 20 38 0 45 3 45 20 0 17 7
20 40 20 33 0 40 3 40 20 0 17 7 20 40 20 33 0 40 3 40 20 0 18 7 20 65 20 58
0 65 2 65 20 0 17 7 20 40 20 36 0 40 3 40 25 0 23 4 25 45 25 38 0 45 3 45
20 0 17 7 20 40 20 33 0 40 3 40 20 0 17 7 20 40 20 33 0 40 3 40 20 0 17 7
20 45 20 38 0 45 3 45 20 0 17 7 20 40 20 33 0 40 3 40 20 0 17 7 20 40 20 36
0 40 3 40 25 0 23 4 25 45 25 38 0 45 3 45 20 0 17 7 20 40 20 33 0 40 3 40
20 0 17 7 20 40 20 33 0 40 3 40 20 0 17 7 20 45 20 38 0 45 3 45 20 0 17 7
20 40 20 33 0 40 3 40 20 0 17 7 20 40 20 36 0 40 3 40 25 0 23 4 25 45 25 38
0 45 3 45 20 0 17 7 20 40 20 33 0 40 3 40 20 0 18 7 20 60 20 53 0 60 2 60
20 0 17 7 20 45 20 38 0 45 3 45 20 0 17 7 20 40 20 33 0 40 3 40 20 0 17 7
20 40 20 36 0 40 3 40 25 0 23 4 25 45 25 38 0 45 3 45 20 0 17 7 20 40 20 33
0 40 3 40 20 0 17 7 20 40 20 33 0 40 3 40 20 0 17 7 20 45 20 38 0 45 3 45
20 0 17 7 20 40 20 33 0 40 3 40 20 0 17 7 20 40 20 36 0 40 3 40 25 0 23 4
25 45 25 38 0 45 3 45 20 0 17 7 20 40 20 33 0 40 3 40 20 0 17 7 20 40 20 33
0 40 3 40 20 0 17 7 20 45 20 38 0 45 3 45 20 0 18 7 20 60 20 53 0 60 2 60
20 0 17 7 20 45 20 41 0 45 2 45 25 0 23 4 25 40 25 33 0 40 3 40 20 0 18 7
20 60 20 53 0 60 2 60 20 0 17 7 20 45 20 38 0 45 3 45 20 0 17 7 20 40 20 33
0 40 3 40 20 0 18 7 20 65 20 58 0 65 2 65 20 0 15 7 20 29 20 57 0 91 12 91
31 0 17 8 19 65 19 58 0 65 2 65 20 0 18 7 20 60 20 53 0 60 2 60 20 0 18 7
20 65 20 58 0 65 2 65 20 0 18 7 20 80 20 73 0 80 2 80 20 0 18 7 20 85 20 76
0 85 2 85 19 0 23 35 31 136 31 67 0 74 2 74 20 0 19 7 20 125 20 118 0 125 1
125 20 0 19 7 20 105 20 98 0 105 1 105 20 0 19 7 20 165 20 158 0 165 1 165
20 0 20 7 20 270 20 263 0 270 0 270 20 0 29 37 27 43 -2 l4 -23 2 23 c1 21 4
22 120 22 116 0 120 -1 124 -22 l4 -23 2 23 c0 12 7 22 15 22 8 0 17 -10 19
-22 l4 -23 2 23 c1 27 31 30 31 2 0 -19 7 -20 229 -20 l230 0 4 -22 4 -23 2
23 c1 27 31 30 31 2 0 -19 7 -20 104 -20 101 0 105 -1 109 -22 l4 -23 2 23 c1
27 31 30 31 2 0 -18 7 -20 85 -20 84 0 85 0 85 -25 l0 -25 105 0 c98 0 105 -1
105 -20 0 -18 7 -20 85 -20 78 0 85 -2 85 -20 0 -18 7 -20 60 -20 53 0 60 -2
60 -20 0 -18 7 -20 65 -20 58 0 65 -2 65 -20 0 -18 7 -20 60 -20 53 0 60 -2
60 -20 0 -18 7 -20 65 -20 57 0 65 -2 65 -19 0 -19 34 -31 91 -31 22 0 29 -5
29 -20 0 -17 7 -20 45 -20 38 0 45 -3 45 -20 0 -18 7 -20 60 -20 53 0 60 -2
60 -20 0 -17 7 -20 40 -20 33 0 40 -3 40 -20 0 -17 7 -20 45 -20 38 0 45 -3
45 -20 0 -17 7 -20 40 -20 33 0 40 -3 40 -19 0 -15 10 -21 40 -26 30 -5 40
-11 40 -26 0 -14 7 -19 25 -19 18 0 25 -5 25 -20 0 -17 7 -20 40 -20 33 0 40
-3 40 -20 0 -13 7 -20 20 -20 13 0 20 -7 20 -20 0 -17 7 -20 40 -20 33 0 40
-3 40 -20 0 -15 7 -20 25 -20 18 0 25 -5 25 -19 0 -15 10 -21 40 -26 30 -5 40
-11 40 -26 0 -12 7 -19 20 -19 13 0 20 -7 20 -20 0 -17 7 -20 40 -20 33 0 40
-3 40 -20 0 -15 7 -20 25 -20 18 0 25 -5 25 -20 0 -17 7 -20 40 -20 33 0 40
-3 40 -20 0 -13 7 -20 20 -20 13 0 20 -7 20 -20 0 -13 7 -20 20 -20 15 0 20
-7 20 -25 0 -18 5 -25 20 -25 13 0 20 -7 20 -20 0 -17 7 -20 45 -20 38 0 45
-3 45 -20 0 -13 7 -20 20 -20 13 0 20 -7 20 -20 0 -13 7 -20 20 -20 13 0 20
-7 20 -20 0 -17 7 -20 40 -20 33 0 40 -3 40 -20 0 -15 7 -20 25 -20 20 0 25
-5 25 -25 0 -18 5 -25 20 -25 13 0 20 -7 20 -20 0 -13 7 -20 20 -20 13 0 20
-7 20 -20 0 -17 7 -20 40 -20 33 0 40 -3 40 -20 0 -13 7 -20 20 -20 13 0 20
-7 20 -20 0 -15 7 -20 25 -20 18 0 25 -5 25 -20 0 -17 7 -20 40 -20 36 0 40
-2 40 -25 0 -18 5 -25 20 -25 13 0 20 -7 20 -20 0 -13 7 -20 20 -20 13 0 20
-7 20 -20 0 -13 7 -20 20 -20 13 0 20 -7 20 -20 0 -17 7 -20 45 -20 38 0 45
-3 45 -20 0 -13 7 -20 20 -20 13 0 20 -7 20 -20 0 -13 7 -20 20 -20 15 0 20
-7 20 -25 0 -22 4 -25 40 -25 33 0 40 -3 40 -20 0 -15 7 -20 25 -20 18 0 25
-5 25 -20 0 -13 7 -20 20 -20 13 0 20 -7 20 -20 0 -13 7 -20 20 -20 13 0 20
-7 20 -20 0 -17 7 -20 40 -20 33 0 40 -3 40 -20 0 -13 7 -20 20 -20 15 0 20
-7 20 -25 0 -23 4 -25 45 -25 38 0 45 -3 45 -20 0 -13 7 -20 20 -20 13 0 20
-7 20 -20 0 -17 7 -20 40 -20 33 0 40 -3 40 -20 0 -17 7 -20 45 -20 38 0 45
-3 45 -20 0 -18 7 -20 60 -20 53 0 60 -2 60 -20 0 -19 7 -20 165 -20 158 0
165 1 165 20 0 18 7 20 65 20 58 0 65 2 65 20 0 17 7 20 40 20 33 0 40 3 40
20 0 17 7 20 45 20 38 0 45 3 45 20 0 13 7 20 20 20 13 0 20 7 20 20 0 13 7
20 20 20 15 0 20 7 20 25 0 18 5 25 20 25 13 0 20 7 20 20 0 13 7 20 20 20 13
0 20 7 20 20 0 13 7 20 20 20 13 0 20 7 20 20 0 15 7 20 25 20 18 0 25 5 25
20 0 13 7 20 20 20 13 0 20 7 20 20 0 13 7 20 20 20 17 0 20 7 20 45 0 38 3
45 20 45 13 0 20 7 20 20 0 13 7 20 20 20 13 0 20 7 20 20 0 13 7 20 20 20 13
0 20 7 20 20 0 15 7 20 25 20 23 0 25 4 25 45 0 38 3 45 20 45 13 0 20 7 20
20 0 13 7 20 20 20 13 0 20 7 20 20 0 13 7 20 20 20 17 0 20 7 20 40 0 33 3
40 20 40 13 0 20 7 20 20 0 13 7 20 20 20 15 0 20 7 20 25 0 20 5 25 25 25 18
0 25 5 25 20 0 13 7 20 20 20 17 0 20 7 20 40 0 33 3 40 20 40 13 0 20 7 20
20 0 13 7 20 20 20 13 0 20 7 20 20 0 13 7 20 20 20 17 0 20 7 20 45 0 38 3
45 20 45 13 0 20 7 20 20 0 15 7 20 25 20 18 0 25 5 25 20 0 13 7 20 19 20 27
0 33 47 29 257 l-3 172 -209 -267 c-116 -147 -322 -410 -459 -585 -220 -280
-258 -324 -320 -368 -100 -70 -181 -94 -322 -93 -89 0 -121 5 -166 22 -56 22
-1072 807 -3154 2437 -407 318 -929 727 -1160 907 -231 181 -432 345 -447 366
-54 73 -84 229 -67 348 6 41 22 95 42 134 21 43 283 384 763 995 1650 2101
3923 5014 5048 6468 93 120 184 230 202 244 50 37 100 52 182 53 71 0 72 0 72
26 l0 27 -87 -6 c-107 -6 -165 -29 -232 -92 -48 -45 -49 -45 -120 -45 -62 0
-71 -2 -71 -18 0 -17 -24 -12 -246 45 -287 74 -2634 700 -4114 1098 -1276 343
-1164 315 -1270 314 -52 0 -116 -6 -141 -13z m376 -71 c198 -55 2014 -542
3485 -935 1714 -457 1845 -493 1832 -498 -7 -2 -12 -12 -12 -23 0 -12 -7 -19
-20 -19 -15 0 -20 -7 -20 -25 0 -18 -5 -25 -20 -25 -13 0 -20 -7 -20 -20 0
-13 -7 -20 -20 -20 -13 0 -20 -7 -20 -20 0 -13 -7 -20 -20 -20 -13 0 -20 -7
-20 -20 0 -13 -7 -20 -20 -20 -13 0 -20 -7 -20 -20 0 -15 -7 -20 -25 -20 -18
0 -25 -5 -25 -20 0 -13 -7 -20 -20 -20 -15 0 -20 -7 -20 -25 0 -18 -5 -25 -20
-25 -17 0 -20 -7 -20 -40 0 -33 -3 -40 -20 -40 -13 0 -20 -7 -20 -20 0 -13 -7
-20 -20 -20 -13 0 -20 -7 -20 -20 0 -13 -7 -20 -20 -20 -17 0 -20 -7 -20 -45
0 -41 -2 -45 -25 -45 -18 0 -25 -5 -25 -20 0 -13 -7 -20 -20 -20 -13 0 -20 -7
-20 -20 0 -13 -7 -20 -20 -20 -13 0 -20 -7 -20 -20 0 -13 -7 -20 -20 -20 -17
0 -20 -7 -20 -40 0 -33 -3 -40 -20 -40 -15 0 -20 -7 -20 -25 0 -18 -5 -25 -20
-25 -13 0 -20 -7 -20 -20 0 -15 -7 -20 -25 -20 -22 0 -25 -4 -25 -40 0 -33 -3
-40 -20 -40 -13 0 -20 -7 -20 -20 0 -13 -7 -20 -20 -20 -13 0 -20 -7 -20 -20
0 -13 -7 -20 -20 -20 -15 0 -20 -7 -20 -25 0 -18 -5 -25 -20 -25 -17 0 -20 -7
-20 -40 0 -33 -3 -40 -20 -40 -13 0 -20 -7 -20 -20 0 -15 -7 -20 -25 -20 -18
0 -25 -5 -25 -20 0 -13 -7 -20 -20 -20 -17 0 -20 -7 -20 -45 0 -38 -3 -45 -20
-45 -13 0 -20 -7 -20 -20 0 -13 -7 -20 -20 -20 -13 0 -20 -7 -20 -20 0 -13 -7
-20 -20 -20 -13 0 -20 -7 -20 -20 0 -13 -7 -20 -20 -20 -17 0 -20 -7 -20 -40
0 -36 -2 -40 -25 -40 -20 0 -25 -5 -25 -25 0 -18 -5 -25 -20 -25 -13 0 -20 -7
-20 -20 0 -13 -7 -20 -20 -20 -17 0 -20 -7 -20 -40 0 -33 -3 -40 -20 -40 -13
0 -20 -7 -20 -20 0 -13 -7 -20 -20 -20 -13 0 -20 -7 -20 -20 0 -13 -7 -20 -20
-20 -15 0 -20 -7 -20 -25 0 -20 -5 -25 -25 -25 -22 0 -25 -4 -25 -40 0 -33 -3
-40 -20 -40 -13 0 -20 -7 -20 -20 0 -13 -7 -20 -20 -20 -13 0 -20 -7 -20 -20
0 -13 -7 -20 -20 -20 -17 0 -20 -7 -20 -45 0 -38 -3 -45 -20 -45 -13 0 -20 -7
-20 -20 0 -13 -7 -20 -20 -20 -13 0 -20 -7 -20 -20 0 -15 -7 -20 -25 -20 -18
0 -25 -5 -25 -20 0 -13 -7 -20 -20 -20 -17 0 -20 -7 -20 -40 0 -33 -3 -40 -20
-40 -15 0 -20 -7 -20 -25 0 -18 -5 -25 -20 -25 -13 0 -20 -7 -20 -20 0 -13 -7
-20 -20 -20 -17 0 -20 -7 -20 -40 0 -33 -3 -40 -20 -40 -13 0 -20 -7 -20 -20
0 -15 -7 -20 -25 -20 -18 0 -25 -5 -25 -20 0 -13 -7 -20 -20 -20 -15 0 -20 -7
-20 -25 0 -18 -5 -25 -20 -25 -17 0 -20 -7 -20 -40 0 -33 -3 -40 -20 -40 -13
0 -20 -7 -20 -20 0 -13 -7 -20 -20 -20 -13 0 -20 -7 -20 -20 0 -13 -7 -20 -20
-20 -17 0 -20 -7 -20 -45 0 -41 -2 -45 -25 -45 -18 0 -25 -5 -25 -20 0 -13 -7
-20 -20 -20 -13 0 -20 -7 -20 -20 0 -13 -7 -20 -20 -20 -13 0 -20 -7 -20 -20
0 -13 -7 -20 -20 -20 -17 0 -20 -7 -20 -40 0 -33 -3 -40 -20 -40 -15 0 -20 -7
-20 -25 0 -18 -5 -25 -20 -25 -13 0 -20 -7 -20 -20 0 -15 -7 -20 -25 -20 -22
0 -25 -4 -25 -40 0 -33 -3 -40 -20 -40 -13 0 -20 -7 -20 -20 0 -13 -7 -20 -20
-20 -13 0 -20 -7 -20 -20 0 -13 -7 -20 -20 -20 -15 0 -20 -7 -20 -25 0 -18 -5
-25 -20 -25 -17 0 -20 -7 -20 -40 0 -33 -3 -40 -20 -40 -13 0 -20 -7 -20 -20
0 -15 -7 -20 -25 -20 -18 0 -25 -5 -25 -20 0 -13 -7 -20 -20 -20 -13 0 -20 -7
-20 -20 0 -13 -7 -20 -20 -20 -17 0 -20 -7 -20 -45 0 -38 -3 -45 -20 -45 -13
0 -20 -7 -20 -20 0 -13 -7 -20 -20 -20 -13 0 -20 -7 -20 -20 0 -13 -7 -20 -20
-20 -17 0 -20 -7 -21 -42 l0 -43 -20 51 c-43 112 -160 197 -313 229 -157 32
-309 -15 -442 -137 -47 -43 -53 -41 -73 32 -63 222 -290 380 -494 342 -83 -16
-172 -61 -224 -114 -131 -135 -193 -351 -164 -573 33 -252 174 -629 404 -1080
92 -179 92 -180 125 -179 21 1 32 -3 32 -12 0 -8 -9 -14 -20 -14 -17 0 -20 -7
-20 -45 0 -38 -3 -45 -20 -45 -13 0 -20 -7 -20 -20 0 -15 -7 -20 -25 -20 -18
0 -25 -5 -25 -20 0 -13 -7 -20 -20 -20 -17 0 -20 -7 -20 -40 0 -33 -3 -40 -20
-40 -13 0 -20 -7 -20 -20 0 -13 -7 -20 -20 -20 -15 0 -20 -7 -20 -25 0 -18 -5
-25 -20 -25 -13 0 -20 -7 -20 -20 0 -13 -7 -20 -20 -20 -17 0 -20 -7 -20 -40
0 -36 -2 -40 -25 -40 -18 0 -25 -5 -25 -20 0 -13 -7 -20 -20 -20 -13 0 -20 -7
-20 -20 0 -13 -7 -20 -20 -20 -15 0 -20 -7 -20 -25 0 -18 -5 -25 -20 -25 -17
0 -20 -7 -20 -40 0 -33 -3 -40 -20 -40 -13 0 -20 -7 -20 -20 0 -13 -7 -20 -20
-20 -13 0 -20 -7 -20 -20 0 -15 -7 -20 -25 -20 -23 0 -25 -4 -25 -45 0 -38 -3
-45 -20 -45 -13 0 -20 -7 -20 -20 0 -13 -7 -20 -20 -20 -13 0 -20 -7 -20 -20
0 -13 -7 -20 -20 -20 -13 0 -20 -7 -20 -20 0 -13 -7 -20 -20 -20 -17 0 -20 -7
-20 -40 0 -33 -3 -40 -20 -40 -15 0 -20 -7 -20 -25 0 -20 -5 -25 -25 -25 -18
0 -25 -5 -25 -20 0 -13 -7 -20 -20 -20 -13 0 -20 -7 -20 -20 0 -13 -7 -20 -20
-20 -17 0 -20 -7 -20 -40 0 -33 -3 -40 -20 -40 -13 0 -20 -7 -20 -20 0 -13 -7
-20 -20 -20 -15 0 -20 -7 -20 -25 0 -18 -5 -25 -20 -25 -17 0 -20 -7 -20 -40
0 -36 -2 -40 -25 -40 -18 0 -25 -5 -25 -20 0 -13 -7 -20 -20 -20 -13 0 -20 -7
-20 -20 0 -13 -7 -20 -20 -20 -13 0 -20 -7 -20 -20 0 -13 -7 -20 -20 -20 -17
0 -20 -7 -20 -45 0 -38 -3 -45 -20 -45 -13 0 -20 -7 -20 -20 0 -13 -7 -20 -20
-20 -13 0 -20 -7 -20 -20 0 -15 -7 -20 -25 -20 -22 0 -25 -4 -25 -40 0 -33 -3
-40 -20 -40 -15 0 -20 -7 -20 -25 0 -18 -5 -25 -20 -25 -13 0 -20 -7 -20 -20
0 -13 -7 -20 -20 -20 -13 0 -20 -7 -20 -20 0 -13 -7 -20 -20 -20 -17 0 -20 -7
-20 -40 0 -33 -3 -40 -20 -40 -13 0 -20 -7 -20 -20 0 -15 -7 -20 -25 -20 -20
0 -25 -5 -25 -25 0 -18 -5 -25 -20 -25 -13 0 -20 -7 -20 -20 0 -13 -7 -20 -20
-20 -17 0 -20 -7 -20 -40 0 -33 -3 -40 -20 -40 -13 0 -20 -7 -20 -20 0 -13 -7
-20 -20 -20 -13 0 -20 -7 -20 -20 0 -13 -7 -20 -20 -20 -17 0 -20 -7 -20 -45
0 -41 -2 -45 -25 -45 -22 0 -25 -4 -25 -40 0 -33 -3 -40 -20 -40 -17 0 -20 -7
-20 -40 0 -33 -3 -40 -20 -40 -18 0 -20 -7 -20 -65 0 -58 -2 -65 -20 -65 -19
0 -20 -7 -20 -165 0 -158 1 -165 20 -165 18 0 20 -7 20 -65 0 -58 2 -65 20
-65 17 0 20 -7 20 -40 0 -33 3 -40 20 -40 13 0 20 -7 20 -20 0 -15 7 -20 25
-20 23 0 25 -4 25 -45 0 -38 3 -45 20 -45 13 0 20 -7 20 -20 0 -13 7 -20 20
-20 13 0 20 -7 20 -20 0 -13 7 -20 20 -20 13 0 20 -7 20 -20 0 -17 7 -20 40
-20 33 0 40 -3 40 -20 0 -15 7 -20 25 -20 18 0 25 -5 25 -20 0 -13 7 -20 20
-20 15 0 20 -7 20 -25 0 -18 5 -25 20 -25 13 0 20 -7 20 -20 0 -17 7 -20 40
-20 33 0 40 -3 40 -20 0 -13 7 -20 20 -20 13 0 20 -7 20 -20 0 -15 7 -20 25
-20 18 0 25 -5 25 -20 0 -13 7 -20 20 -20 13 0 20 -7 20 -20 0 -17 7 -20 40
-20 36 0 40 -2 40 -25 0 -18 5 -25 20 -25 13 0 20 -7 20 -20 0 -13 7 -20 20
-20 13 0 20 -7 20 -20 0 -15 7 -20 25 -20 18 0 25 -5 25 -20 0 -17 7 -20 40
-20 33 0 40 -3 40 -20 0 -13 7 -20 20 -20 13 0 20 -7 20 -20 0 -13 7 -20 20
-20 15 0 20 -7 20 -25 0 -23 4 -25 45 -25 38 0 45 -3 45 -20 0 -13 7 -20 20
-20 13 0 20 -7 20 -20 0 -13 7 -20 20 -20 13 0 20 -7 20 -20 0 -13 7 -20 20
-20 11 0 20 -4 20 -10 0 -5 -3 -10 -7 -10 -13 0 -651 169 -1708 452 -555 148
-1145 306 -1310 349 -181 49 -317 90 -343 105 -83 49 -179 201 -202 322 -19
96 -7 173 70 457 417 1528 1665 6212 2245 8424 91 348 174 650 185 671 40 79
155 148 290 174 57 11 181 -5 305 -39z m-985 -355 c0 -33 -3 -40 -20 -40 -17
0 -20 -7 -20 -45 0 -38 -3 -45 -20 -45 -18 0 -20 -7 -20 -60 0 -53 -2 -60 -20
-60 -18 0 -20 -7 -20 -65 0 -63 -1 -65 -25 -65 -25 0 -25 -1 -25 -80 0 -73 -2
-80 -20 -80 -18 0 -20 -7 -20 -65 0 -58 -2 -65 -20 -65 -18 0 -20 -7 -20 -80
0 -73 -2 -80 -20 -80 -18 0 -20 -7 -20 -85 0 -78 -2 -85 -20 -85 -18 0 -20 -7
-20 -85 0 -78 -2 -85 -20 -85 -18 0 -20 -7 -20 -80 0 -79 0 -80 -25 -80 -24 0
-25 -2 -25 -65 0 -58 -2 -65 -20 -65 -18 0 -20 -7 -20 -85 0 -78 -2 -85 -20
-85 -18 0 -20 -7 -20 -80 0 -73 -2 -80 -20 -80 -18 0 -20 -7 -20 -85 0 -78 -2
-85 -20 -85 -18 0 -20 -7 -20 -85 0 -78 -2 -85 -20 -85 -18 0 -20 -7 -20 -60
0 -57 -1 -60 -25 -60 -25 0 -25 -1 -25 -85 0 -78 -2 -85 -20 -85 -18 0 -20 -7
-20 -80 0 -73 -2 -80 -20 -80 -18 0 -20 -7 -20 -85 0 -78 -2 -85 -20 -85 -18
0 -20 -7 -20 -65 0 -58 -2 -65 -20 -65 -18 0 -20 -7 -20 -80 0 -73 -2 -80 -20
-80 -18 0 -20 -7 -20 -85 0 -84 0 -85 -25 -85 -25 0 -25 -1 -25 -85 0 -78 -2
-85 -20 -85 -18 0 -20 -7 -20 -80 0 -73 -2 -80 -20 -80 -18 0 -20 -7 -20 -65
0 -58 -2 -65 -20 -65 -18 0 -20 -7 -20 -80 0 -73 -2 -80 -20 -80 -18 0 -20 -7
-20 -85 0 -78 -2 -85 -20 -85 -18 0 -20 -7 -20 -85 0 -84 0 -85 -25 -85 -24 0
-25 -3 -25 -60 0 -53 -2 -60 -20 -60 -18 0 -20 -7 -20 -85 0 -78 -2 -85 -20
-85 -18 0 -20 -7 -20 -85 0 -78 -2 -85 -20 -85 -18 0 -20 -7 -20 -80 0 -73 -2
-80 -20 -80 -18 0 -20 -7 -20 -65 0 -58 -2 -65 -20 -65 -18 0 -20 -7 -20 -80
0 -79 0 -80 -25 -80 -24 0 -25 -2 -25 -71 0 -38 -4 -68 -9 -65 -5 3 -39 10
-76 15 -91 13 -174 -1 -265 -47 -41 -20 -78 -38 -82 -40 -20 -9 -4 26 38 82
26 33 63 95 83 136 31 64 36 86 39 165 3 73 0 102 -18 154 -62 185 -221 291
-435 291 -61 0 -187 -31 -242 -58 -174 -90 -266 -283 -222 -471 22 -96 58
-152 162 -253 112 -109 111 -114 -15 -82 -257 66 -498 -143 -498 -432 0 -162
109 -340 255 -417 56 -30 66 -32 165 -32 93 0 112 3 162 27 105 49 185 151
232 296 23 68 41 67 50 -1 11 -94 -20 -280 -79 -473 -31 -100 -33 -139 -7
-129 46 19 209 45 315 51 l117 7 0 -36 c0 -30 -4 -37 -20 -37 -18 0 -20 -7
-20 -85 0 -78 -2 -85 -20 -85 -18 0 -20 -7 -20 -60 0 -53 -2 -60 -20 -60 -18
0 -20 -7 -20 -85 0 -84 0 -85 -25 -85 -25 0 -25 -1 -25 -85 0 -78 -2 -85 -20
-85 -18 0 -20 -7 -20 -80 0 -73 -2 -80 -20 -80 -18 0 -20 -7 -20 -65 0 -58 -2
-65 -20 -65 -18 0 -20 -7 -20 -80 0 -73 -2 -80 -20 -80 -18 0 -20 -7 -20 -85
0 -78 -2 -85 -20 -85 -18 0 -20 -7 -20 -65 0 -63 -1 -65 -25 -65 -25 0 -25 -1
-25 -80 0 -73 -2 -80 -20 -80 -18 0 -20 -7 -20 -85 0 -78 -2 -85 -20 -85 -18
0 -20 -7 -20 -85 0 -78 -2 -85 -20 -85 -18 0 -20 -7 -20 -60 0 -53 -2 -60 -20
-60 -18 0 -20 -7 -20 -85 0 -78 -2 -85 -20 -85 -18 0 -20 -7 -20 -80 0 -79 0
-80 -25 -80 -24 0 -25 -2 -25 -65 0 -58 -2 -65 -20 -65 -18 0 -20 -7 -20 -85
0 -78 -2 -85 -20 -85 -19 0 -20 -7 -20 -125 0 -118 -1 -125 -20 -125 -19 0
-20 -7 -20 -125 0 -118 1 -125 20 -125 18 0 20 -7 20 -80 0 -73 2 -80 20 -80
17 0 20 -7 20 -45 0 -38 3 -45 20 -45 13 0 20 -7 20 -20 0 -15 7 -20 25 -20
23 0 25 -4 25 -40 0 -33 3 -40 20 -40 13 0 20 -7 20 -20 0 -13 7 -20 20 -20
13 0 20 -7 20 -20 0 -17 7 -20 40 -20 36 0 40 -2 40 -25 0 -18 5 -25 20 -25
13 0 20 -7 20 -20 0 -17 7 -20 45 -20 38 0 45 -3 45 -20 0 -18 7 -20 60 -20
53 0 60 -2 60 -20 0 -18 7 -20 65 -20 58 0 65 -2 65 -20 0 -18 7 -20 80 -20
73 0 80 -2 80 -20 0 -18 7 -20 85 -20 84 0 85 0 85 -25 0 -24 2 -25 65 -25 58
0 65 -2 65 -20 0 -18 7 -20 80 -20 73 0 80 -2 80 -20 0 -18 7 -20 85 -20 78 0
85 -2 85 -20 0 -18 7 -20 85 -20 78 0 85 -2 85 -20 0 -18 7 -20 62 -20 34 0
59 -2 57 -5 -7 -6 -592 -80 -1754 -220 -528 -64 -1181 -143 -1451 -175 -473
-57 -493 -59 -548 -45 -144 38 -299 187 -342 329 -8 28 -69 503 -135 1055
-332 2786 -662 5498 -915 7516 -86 686 -133 1095 -129 1120 19 124 151 255
307 305 43 13 283 46 743 100 650 77 3159 379 4280 515 292 35 564 68 605 73
41 5 78 10 83 11 4 0 7 -17 7 -39z m-1901 -5899 c71 -93 127 -143 187 -168 42
-17 44 -20 44 -60 0 -36 -3 -43 -20 -43 -18 0 -20 -7 -20 -80 0 -73 -2 -80
-20 -80 -14 0 -20 -7 -20 -22 0 -22 0 -22 -14 -2 -37 52 -156 296 -174 354
-21 68 -39 180 -29 180 4 0 33 -35 66 -79z m4111 -381 c0 -5 -5 -10 -11 -10
-5 0 -7 5 -4 10 3 6 8 10 11 10 2 0 4 -4 4 -10z"/>
<path d="M8503 13709 c-6 -8 -65 -131 -131 -274 -272 -588 -264 -575 -325
-560 -31 8 -57 -17 -57 -55 0 -36 7 -40 144 -75 l109 -28 19 22 c25 32 23 66
-7 85 -32 21 -32 36 7 124 38 87 49 92 151 66 103 -27 110 -36 102 -137 -8
-107 -9 -107 -49 -107 -40 0 -59 -24 -54 -68 3 -25 10 -29 83 -50 44 -13 101
-26 126 -29 45 -5 47 -4 57 26 14 40 9 52 -28 73 -28 16 -30 21 -30 80 0 35 9
223 20 418 26 468 26 456 -6 476 -34 23 -116 31 -131 13z m37 -364 c-13 -255
-7 -239 -81 -232 -65 6 -89 19 -89 49 0 30 166 385 176 375 2 -1 -1 -88 -6
-192z"/>
<path d="M8030 12598 c-89 -60 -111 -206 -55 -372 38 -114 145 -330 166 -334
23 -4 222 141 316 231 115 110 157 206 133 298 -15 54 -55 94 -110 109 -38 10
-51 9 -104 -10 -34 -11 -68 -23 -77 -26 -12 -4 -23 7 -40 37 -46 83 -157 115
-229 67z"/>
<path d="M2300 12740 c-19 -5 -42 -18 -51 -29 -19 -23 -39 -143 -39 -234 0
-136 -40 -680 -51 -693 -6 -7 -26 -16 -45 -20 -41 -8 -55 -43 -32 -83 16 -30
23 -30 181 -11 87 11 100 15 109 35 18 39 -2 79 -43 85 l-34 5 -3 84 c-4 106
6 123 83 140 105 24 144 1 179 -102 24 -72 21 -93 -13 -100 -34 -7 -41 -22
-32 -68 6 -30 11 -34 41 -37 35 -4 211 15 237 25 7 3 11 14 9 27 -16 78 -15
76 -50 76 -18 0 -38 6 -43 13 -12 15 -38 91 -170 487 -141 426 -132 405 -168
407 -17 1 -46 -2 -65 -7z m126 -448 c25 -73 42 -137 39 -141 -3 -5 -35 -14
-72 -21 -95 -16 -94 -21 -76 185 7 94 16 177 20 185 7 20 33 -40 89 -208z"/>
<path d="M2440 11539 c-32 -13 -68 -47 -86 -81 -22 -43 -17 -96 15 -154 l30
-52 -42 -6 c-111 -17 -167 -116 -123 -219 24 -57 69 -90 129 -95 49 -4 57 -1
89 27 20 17 39 42 42 56 4 14 11 25 17 25 13 0 8 -55 -12 -123 -12 -42 -11
-49 3 -64 14 -14 26 -15 75 -7 49 8 58 12 61 32 2 12 -6 34 -17 48 -20 25 -45
94 -37 102 2 2 23 -10 46 -27 72 -52 111 -50 173 8 46 42 59 75 51 129 -14
103 -51 139 -149 149 l-53 6 5 82 c5 66 2 87 -12 108 -35 53 -139 82 -205 56z"/>
<path d="M14245 12105 c-190 -168 -352 -305 -359 -305 -8 0 -31 7 -52 16 -37
15 -38 15 -56 -8 -9 -12 -17 -30 -17 -38 0 -8 45 -50 100 -93 98 -76 101 -78
125 -62 28 18 30 44 8 87 -9 17 -12 33 -7 37 4 4 40 35 79 69 l71 61 86 -70
87 -69 -47 -94 -46 -93 -36 9 c-32 9 -37 8 -58 -17 -13 -14 -23 -30 -23 -35 0
-5 43 -43 96 -84 84 -66 98 -74 115 -63 31 19 35 54 10 87 l-21 29 155 312
155 312 0 159 c0 93 -4 158 -9 158 -6 0 -166 -137 -356 -305z m275 56 c-16
-43 -147 -310 -155 -319 -6 -6 -49 20 -97 58 l-48 38 78 74 c85 81 223 198
234 198 4 0 -1 -22 -12 -49z"/>
<path d="M13710 11402 c-134 -37 -216 -65 -235 -80 -74 -58 -101 -138 -68
-202 23 -45 54 -60 128 -60 l60 -1 -65 -58 c-36 -33 -63 -61 -60 -63 3 -2 20
-16 38 -31 19 -15 37 -27 41 -27 4 0 23 29 42 65 18 36 37 65 41 65 4 0 11
-18 14 -41 14 -84 96 -135 168 -105 19 8 52 37 74 65 46 58 47 63 57 364 6
156 5 167 -12 166 -10 0 -110 -26 -223 -57z"/>
<path d="M14565 8929 c-46 -14 -679 -159 -1045 -239 -641 -140 -911 -224
-1204 -373 -328 -166 -577 -448 -657 -742 -31 -114 -32 -336 -1 -449 114 -416
511 -683 933 -627 47 6 178 38 291 70 112 33 251 69 309 81 138 29 239 63 325
111 84 46 126 50 150 14 20 -31 13 -54 -44 -135 -97 -137 -191 -217 -336 -286
l-80 -37 40 -35 c57 -50 264 -205 268 -201 2 2 10 46 19 97 11 66 27 118 55
175 48 100 151 241 191 262 45 23 76 19 89 -10 17 -36 15 -65 -9 -148 -19 -66
-21 -105 -25 -499 -4 -365 -2 -439 12 -505 51 -252 224 -473 461 -592 73 -36
221 -81 269 -81 l34 0 0 234 0 233 -80 6 c-211 16 -393 110 -505 260 -51 66
-88 133 -83 147 2 5 30 -12 63 -36 78 -59 156 -98 236 -119 83 -22 242 -16
314 12 l50 19 3 208 2 209 -43 -36 c-104 -85 -209 -121 -336 -115 -169 8 -293
96 -336 238 -6 20 4 14 53 -32 84 -77 149 -102 267 -103 80 0 97 4 157 32 81
38 148 98 200 177 l38 59 0 855 c0 809 -1 854 -17 847 -91 -35 -409 -117 -753
-195 -409 -92 -596 -149 -720 -217 -77 -43 -174 -139 -212 -209 -111 -206 -48
-434 152 -548 54 -31 55 -31 24 -34 -71 -7 -198 64 -260 145 -58 76 -78 144
-78 263 1 144 28 217 134 354 59 77 164 165 252 211 125 66 436 174 806 280
199 58 432 127 517 155 l155 51 0 111 c0 87 -3 109 -13 105 -36 -14 -415 -117
-772 -211 -553 -145 -875 -258 -1029 -360 -181 -121 -329 -320 -371 -501 -53
-222 32 -442 227 -589 77 -58 69 -69 -30 -41 -180 52 -338 184 -416 347 -57
119 -71 180 -70 303 2 384 300 709 805 878 126 43 524 143 899 227 151 34 386
88 523 122 l247 60 0 179 c0 98 -3 179 -7 178 -5 0 -21 -5 -38 -10z"/>
<path d="M13038 6136 c-64 -28 -119 -54 -123 -57 -18 -19 387 -339 429 -339 9
0 19 41 32 128 l19 127 -80 64 c-44 36 -98 79 -120 96 l-40 32 -117 -51z"/>
<path d="M12735 5844 c-60 -29 -153 -68 -205 -85 -117 -39 -114 -37 -98 -57
61 -74 668 -536 684 -520 9 10 74 462 67 468 -76 66 -316 250 -325 249 -7 0
-62 -25 -123 -55z"/>
<path d="M14144 3120 c-31 -12 -85 -70 -101 -109 -11 -25 -16 -98 -20 -264 -6
-222 -6 -229 13 -224 10 4 93 26 184 51 217 59 249 71 288 109 44 42 62 78 62
122 0 78 -54 125 -147 125 l-48 1 63 58 63 58 -33 25 c-18 13 -38 27 -45 31
-7 5 -26 -21 -52 -68 -42 -76 -62 -95 -54 -51 7 37 -15 92 -48 121 -32 26 -83
32 -125 15z"/>
<path d="M13626 2579 l-26 -31 20 -25 c11 -14 20 -36 20 -48 0 -12 -90 -204
-200 -426 -110 -222 -200 -410 -200 -419 0 -8 25 -35 55 -59 l56 -43 52 45
c29 25 189 167 357 315 l304 270 48 -19 47 -18 21 26 c11 14 20 29 20 32 0 21
-196 175 -213 168 -7 -3 -19 -17 -27 -31 -12 -23 -12 -32 0 -63 l13 -37 -44
-39 c-24 -21 -59 -50 -77 -64 l-32 -26 -76 59 c-41 33 -81 63 -89 68 -10 8 -4
29 33 101 l45 92 42 -5 c36 -4 45 -1 59 19 9 13 16 28 16 34 -1 9 -181 155
-193 155 -3 0 -17 -14 -31 -31z m38 -521 c28 -23 55 -45 59 -48 6 -6 -96 -102
-275 -259 l-37 -32 8 28 c34 114 158 353 183 353 6 0 33 -19 62 -42z"/>
</g>
</svg>
